<?xml version="1.0" encoding="UTF-8" standalone="no"?>
<!DOCTYPE svg PUBLIC "-//W3C//DTD SVG 1.1//EN"
"http://www.w3.org/Graphics/SVG/1.1/DTD/svg11.dtd">
<svg viewBox="0 0 487 699" version="1.1" xmlns="http://www.w3.org/2000/svg" xmlns:xlink="http://www.w3.org/1999/xlink">
<defs>
<clipPath id="c0"><path d="M-185.2,1063V-61.3H664.1V1063Z"/></clipPath>
<clipPath id="c1"><path d="M-.8,350.5V.7H490.6V350.5Z"/></clipPath>
<clipPath id="c2"><path d="M244.9,95.5c-2.5,0,-4.9,-.2,-7.3,-.7c-2.4,-.5,-4.7,-1.2,-6.9,-2.1c-2.3,-.9,-4.4,-2.1,-6.4,-3.4c-2,-1.4,-3.9,-2.9,-5.6,-4.6C217,83,215.4,81.1,214.1,79.1c-1.4,-2,-2.5,-4.2,-3.4,-6.4c-1,-2.3,-1.7,-4.6,-2.2,-7c-.4,-2.3,-.7,-4.8,-.7,-7.2c0,-2.4,.3,-4.8,.7,-7.2c.5,-2.4,1.2,-4.7,2.2,-6.9c.9,-2.3,2,-4.4,3.4,-6.4c1.3,-2.1,2.9,-3.9,4.6,-5.7c1.7,-1.7,3.6,-3.2,5.6,-4.6c2,-1.3,4.1,-2.4,6.4,-3.4c2.2,-.9,4.5,-1.6,6.9,-2.1c2.4,-.5,4.8,-.7,7.3,-.7c2.4,0,4.8,.2,7.2,.7c2.4,.5,4.7,1.2,6.9,2.1c2.3,1,4.4,2.1,6.4,3.4c2,1.4,3.9,2.9,5.6,4.6c1.7,1.8,3.3,3.6,4.6,5.7c1.4,2,2.5,4.1,3.4,6.4c1,2.2,1.7,4.5,2.2,6.9c.4,2.4,.7,4.8,.7,7.2c0,2.4,-.3,4.9,-.7,7.2c-.5,2.4,-1.2,4.7,-2.2,7c-.9,2.2,-2,4.4,-3.4,6.4c-1.3,2,-2.9,3.9,-4.6,5.6c-1.7,1.7,-3.6,3.2,-5.6,4.6c-2,1.3,-4.1,2.5,-6.4,3.4c-2.2,.9,-4.5,1.6,-6.9,2.1c-2.4,.5,-4.8,.7,-7.2,.7Z"/></clipPath>
<clipPath id="c3"><path d="M-228,1105.8V-104.1H706.9V1105.8Z"/></clipPath>
<style type="text/css"><![CDATA[
.g0{
fill: #303D46;
}
.g1{
fill: #313B47;
}
.g2{
fill: #FFF;
}
.g3{
fill: #4685C6;
fill-opacity: 0.08;
}
.g4{
fill: #4685C6;
}
.g5{
fill: #191919;
}
.g6{
fill: #90B6DD;
}
.g7{
fill: none;
stroke: #B2B2B2;
stroke-width: 0.831;
stroke-miterlimit: 10;
}
.g8{
fill: none;
stroke: #191919;
stroke-width: 2.495;
stroke-miterlimit: 10;
}
]]></style>
</defs>
<g clip-path="url(#c3)">
<g clip-path="url(#c0)">
<path d="M-185.2,-61.3H665.1v1125H-185.2V-61.3Z" class="g0"/>
<path d="M-185.2,-61.3H665.1v1125H-185.2V-61.3Z" class="g1"/>
<path d="M-185.2,-61.3H665.1v1125H-185.2V-61.3Z" class="g1"/>
</g>
<path d="M-.8,.7H490.6V699.8H-.8V.7Z" class="g2"/>
<path d="M248.1,56c-.8,.8,-.8,2,0,2.9c.4,.4,.9,.5,1.4,.5c.6,0,1.1,-.2,1.4,-.5c.4,-.4,.6,-1,.6,-1.4c0,-.5,-.2,-1.1,-.6,-1.5c-.7,-.8,-2,-.8,-2.8,0Zm2,2c-.3,.3,-.8,.3,-1.1,0c-.4,-.3,-.4,-.9,0,-1.2c.1,-.1,.3,-.2,.5,-.2c.3,0,.4,.1,.6,.2c.2,.2,.2,.3,.2,.6c.1,.2,0,.4,-.2,.6Z" class="g3"/>
<path d="M249.5,51.1c-1.9,0,-3.8,.7,-5.2,2.1c-.1,.1,-.2,.3,-.2,.4c0,.2,.1,.3,.2,.4l1.3,1.4c.3,.2,.7,.2,.9,0c.8,-.9,1.9,-1.3,3,-1.3c1.2,0,2.3,.4,3.1,1.3c.1,0,.2,.1,.4,.1c.2,0,.3,-.1,.4,-.1L254.7,54c.1,-.1,.2,-.2,.2,-.4c0,-.1,-.1,-.3,-.2,-.4c-1.3,-1.4,-3.1,-2.1,-5.2,-2.1Zm3.5,3c-1,-.8,-2.2,-1.2,-3.4,-1.2c-1.2,0,-2.5,.4,-3.5,1.2l-.4,-.4c1.1,-.9,2.5,-1.4,3.9,-1.4c1.4,0,2.8,.5,3.9,1.4l-.5,.4Z" class="g3"/>
<path d="M249.5,46.8c-3,0,-5.9,1.1,-8.2,3.3c-.1,.1,-.2,.3,-.2,.5c0,.1,.1,.3,.2,.4l1.3,1.3c.1,.1,.3,.2,.4,.2c.2,0,.4,-.1,.4,-.2c1.6,-1.6,3.8,-2.5,6.1,-2.5c2.3,0,4.4,.9,6,2.5c.3,.2,.7,.2,.9,0L257.7,51c.1,-.1,.2,-.3,.2,-.4c0,-.2,-.1,-.4,-.2,-.5c-2.1,-2.1,-5,-3.3,-8.2,-3.3Zm6.5,4.3c-1.7,-1.6,-4,-2.4,-6.4,-2.4c-2.4,0,-4.7,.8,-6.5,2.4l-.4,-.4C244.6,49,247,48,249.6,48c2.6,0,5,.9,6.9,2.7l-.5,.4Z" class="g3"/>
<path d="M466.5,45.8V28.4c0,-.8,-.5,-1.3,-1.3,-1.3h-8.7c-.8,0,-1.3,.5,-1.3,1.3V45.8c0,.8,.5,1.4,1.3,1.4h8.7c.7,0,1.3,-.6,1.3,-1.4ZM455.7,28.4c0,-.4,.4,-.8,.8,-.8h8.7c.4,0,.8,.3,.8,.8v1.3H455.8l-.1,-1.3Zm0,1.9h10.2V43.6H455.7V30.3Zm0,15.5V44.2h10.2v1.6c0,.4,-.3,.8,-.7,.8h-8.7c-.4,0,-.8,-.3,-.8,-.8Z" class="g3"/>
<path d="M459.7,45.1h2.2v.6h-2.2v-.6Z" class="g3"/>
<path d="M459.6,28.4h.7V29h-.7v-.6Z" class="g3"/>
<path d="M460.7,28.4h1.9V29h-1.9v-.6Z" class="g3"/>
<path d="M457.9,37.4l3.2,-3.2l.4,.4l-3.2,3.2l-.4,-.4Z" class="g3"/>
<path d="M457.9,40.1l6.1,-6l.4,.4l-6.1,6l-.4,-.4Z" class="g3"/>
<path d="M82.8,35.4h.6c0,-1.7,1.3,-3,3,-3v-.6c-1.9,-.1,-3.6,1.6,-3.6,3.6Z" class="g3"/>
<path d="M90.5,30.4l.5,.4c.9,-.9,2.1,-1.5,3.3,-1.5c.5,0,1,.1,1.4,.2l.1,-.6c-.4,-.2,-1,-.2,-1.5,-.2c-1.4,0,-2.8,.6,-3.8,1.7Z" class="g3"/>
<path d="M101.2,32.6c-.6,-3.3,-3.4,-5.7,-6.9,-5.7c-2.5,0,-4.8,1.3,-6,3.5C87.6,30.1,86.9,30,86.1,30c-2.9,0,-5.4,2.4,-5.4,5.4c0,3,2.5,5.5,5.4,5.5H90v4.2c0,.2,.1,.3,.3,.3h1.9c.2,0,.3,-.1,.3,-.3V40.9h2.6v1.5h-.8c-.1,0,-.3,.1,-.3,.2c-.1,.1,0,.2,0,.3l2.2,2.7c0,.1,.1,.1,.2,.1c.1,0,.2,-.1,.2,-.1l2.2,-2.7c.1,-.1,.1,-.2,0,-.3c-.1,-.1,-.2,-.2,-.3,-.2h-.8V40.9h4.6c2.4,0,4.2,-1.9,4.2,-4.2c0,-2.4,-1.8,-4.2,-4.2,-4.2c-.4,-.1,-.8,0,-1.1,.1ZM91.9,44.8H90.5V38.3c0,-.1,-.1,-.3,-.3,-.3h-.5l1.5,-1.8L92.7,38h-.5c-.2,0,-.4,.2,-.4,.3v6.4l.1,.1ZM97.8,43l-1.5,1.8L94.8,43h.5c.1,0,.3,-.2,.3,-.3V36.3h1.3v6.4c0,.2,.2,.3,.3,.3h.6Zm8,-6.4c0,1.9,-1.6,3.6,-3.5,3.6H97.6V36c0,-.1,-.1,-.3,-.3,-.3H95.4c-.2,0,-.3,.2,-.3,.3v4.2H92.5V38.6h.8c.1,0,.3,0,.3,-.1c.1,-.1,0,-.3,0,-.4L91.4,35.5c0,-.2,-.3,-.2,-.5,0l-2.1,2.6c-.1,.1,-.1,.3,0,.4c.1,0,.2,.1,.3,.1h.8v1.6H86.1c-2.7,0,-4.8,-2.1,-4.8,-4.7c0,-2.7,2.2,-4.7,4.8,-4.7c.7,0,1.5,.1,2.1,.4c.1,0,.2,.1,.2,0c.1,0,.2,0,.2,-.1c1.1,-2.2,3.2,-3.5,5.7,-3.5c3.2,0,5.9,2.4,6.3,5.6q0,.1,.1,.2c.1,.1,.2,.1,.3,0c.4,-.1,.8,-.2,1.2,-.2c2,-.1,3.6,1.5,3.6,3.4Z" class="g3"/>
<path clip-path="url(#c1)" d="M264.5,52.3c0,-8.1,-6.6,-14.8,-14.7,-14.9V17.3h-23V.7h-.9V18H249V37.3c-8,.3,-14.4,6.9,-14.4,14.9c0,8.3,6.7,15,14.9,15c8.4,.1,15,-6.7,15,-14.9Zm-15,14.1c-7.8,0,-14.1,-6.3,-14.1,-14.1c0,-7.9,6.3,-14.2,14.1,-14.2c7.8,0,14.2,6.3,14.2,14.2c0,7.8,-6.3,14.1,-14.2,14.1Z" class="g3"/>
<path d="M93.6,18.8C84.6,18.8,77.3,26.1,77,35H29.8V24.6H-.8v.8H29V35.8H77c.2,9,7.6,16.3,16.6,16.3c9.1,0,16.6,-7.5,16.6,-16.6c0,-9.2,-7.4,-16.7,-16.6,-16.7Zm0,32.4c-8.7,0,-15.8,-7,-15.8,-15.8c0,-8.7,7.1,-15.8,15.8,-15.8c8.7,0,15.8,7.1,15.8,15.8c0,8.8,-7.1,15.8,-15.8,15.8Z" class="g3"/>
<g clip-path="url(#c1)">
<path d="M461.4,76.5V52.1c8.3,-.3,14.9,-7.1,14.9,-15.4c0,-8.6,-7,-15.6,-15.5,-15.6c-8.6,0,-15.6,7,-15.6,15.6c0,8.4,6.9,15.3,15.2,15.5V77.4h32.9v-.9H461.4ZM446.2,36.7c0,-8.1,6.6,-14.7,14.7,-14.7c8.1,0,14.7,6.6,14.7,14.7c0,7.9,-6.3,14.4,-14.1,14.6v-.1h-.9v.1c-8,-.1,-14.4,-6.6,-14.4,-14.6Z" class="g3"/>
<path d="M205.2,32.2c1.9,0,3.5,-1.5,3.7,-3.3h11.3V.7h-.9V28H208.9c-.3,-1.9,-1.8,-3.3,-3.7,-3.3c-2.1,0,-3.8,1.6,-3.8,3.7c0,2.1,1.7,3.8,3.8,3.8Zm0,-6.7c1.6,0,2.9,1.4,2.9,2.9c0,1.6,-1.3,3,-2.9,3c-1.6,0,-2.9,-1.4,-2.9,-3c0,-1.5,1.3,-2.9,2.9,-2.9Z" class="g3"/>
<path d="M165.7,71.4v-57H148.5V.7h-.9V51.5c-2.7,.1,-4.7,2.3,-4.7,5c0,2.7,2.2,5,5,5c2.8,0,5.1,-2.3,5.1,-5c0,-2.6,-2,-4.8,-4.5,-5V15.2h16.3V71.4c-1.8,.1,-3.4,1.7,-3.4,3.7c0,2.1,1.6,3.8,3.7,3.8c2.1,0,3.8,-1.7,3.8,-3.8c-.1,-1.9,-1.5,-3.4,-3.2,-3.7ZM152.1,56.6c0,2.3,-1.9,4.2,-4.3,4.2c-2.3,0,-4.2,-1.9,-4.2,-4.2c0,-2.4,1.9,-4.3,4.2,-4.3c2.4,0,4.3,1.9,4.3,4.3Zm13,21.3c-1.6,0,-3,-1.3,-3,-2.9c0,-1.6,1.4,-2.9,3,-2.9c1.5,0,2.9,1.3,2.9,2.9c0,1.6,-1.4,2.9,-2.9,2.9Z" class="g3"/>
</g>
<path d="M68.3,60.3c-1.9,0,-3.5,1.4,-3.7,3.3H39.8v9.6H-.8V74H40.6V64.5H64.5c.2,1.8,1.8,3.3,3.8,3.3c2.1,0,3.8,-1.7,3.8,-3.8c0,-2.1,-1.7,-3.7,-3.8,-3.7Zm0,6.7c-1.6,0,-2.9,-1.4,-2.9,-3c0,-1.5,1.3,-2.9,2.9,-2.9c1.6,0,2.9,1.4,2.9,2.9c0,1.6,-1.3,3,-2.9,3Z" class="g3"/>
<g clip-path="url(#c1)">
<path d="M388.9,53.7c-2,0,-3.6,1.5,-3.8,3.4H362.8V31c1.8,-.3,3.2,-1.9,3.2,-3.7c0,-2.1,-1.7,-3.8,-3.8,-3.8c-2,0,-3.7,1.7,-3.7,3.8c0,1.9,1.5,3.5,3.4,3.7v7.3H346.2V.4h-.9V39.1h16.5V58h23.3c.3,1.8,1.9,3.1,3.7,3.1c2.1,0,3.8,-1.6,3.8,-3.7c-.1,-2.1,-1.6,-3.7,-3.7,-3.7ZM359.4,27.3c0,-1.6,1.3,-2.9,2.9,-2.9c1.6,0,2.9,1.3,2.9,2.9c0,1.6,-1.3,2.9,-2.9,2.9c-1.6,0,-2.9,-1.3,-2.9,-2.9Zm29.5,33c-1.6,0,-3,-1.3,-3,-2.9c0,-1.6,1.4,-2.9,3,-2.9c1.5,0,2.9,1.3,2.9,2.9c0,1.6,-1.4,2.9,-2.9,2.9Z" class="g3"/>
<path d="M444.5,91.2c-1.8,.2,-3.1,1.8,-3.1,3.7c0,2,1.6,3.7,3.7,3.7c2.1,0,3.8,-1.6,3.8,-3.7c0,-2,-1.5,-3.6,-3.5,-3.8V81.7h48v-.8H444.5V91.2Zm3.4,3.8c0,1.5,-1.3,2.9,-2.9,2.9c-1.5,0,-2.9,-1.4,-2.9,-2.9c0,-1.6,1.4,-3,2.9,-3c1.6,0,2.9,1.3,2.9,3Z" class="g3"/>
</g>
<image clip-path="url(#c0)" x="0" y="350" width="491" height="350" xlink:href="shade/1.png"/>
<path d="M-.8,21.5H19V52.3H-.8V21.5Z" class="g4"/>
<path d="M-.8,130.5H490.6v.8H-.8v-.8Z" class="g4"/>
<path d="M463.6,26c-.2,0,-.4,-.1,-.6,-.2l-4.3,-4.4v6.1c0,.2,0,.4,.2,.5c.1,.2,.3,.3,.5,.3l2.4,-2.5c.2,-.1,.3,-.1,.4,0c.1,.1,.1,.2,0,.4l-2.1,2.1h7L465,26.2c-.1,-.2,-.1,-.3,0,-.4c.1,-.1,.2,-.1,.3,0l2.5,2.5c.2,0,.4,-.1,.5,-.3c.2,-.1,.2,-.3,.2,-.5V21.4l-4.4,4.4c-.1,.1,-.3,.2,-.5,.2Z" class="g4"/>
<path d="M463.8,25.4l4.6,-4.5c-.2,-.3,-.4,-.4,-.6,-.4h-8.4c-.2,0,-.4,.1,-.6,.4l4.6,4.5c.1,.2,.3,.2,.4,0Z" class="g4"/>
<path d="M463.8,47.5c0,.2,0,.3,-.2,.3c-.2,0,-.3,-.1,-.3,-.3c0,-.2,.1,-.3,.3,-.3c.2,0,.2,.1,.2,.3Z" class="g4"/>
<path d="M465.9,39.4h-4.6c-.3,0,-.4,.1,-.6,.3c-.1,.1,-.2,.3,-.2,.5v8.3c0,.3,.1,.4,.2,.6c.2,.1,.3,.2,.6,.2h4.6c.2,0,.4,-.1,.6,-.2c.1,-.2,.2,-.3,.2,-.6V40.2c0,-.2,-.1,-.4,-.2,-.5c-.2,-.2,-.4,-.3,-.6,-.3Zm-2.3,8.9c-.2,0,-.4,-.1,-.6,-.3c-.1,-.1,-.2,-.3,-.2,-.5c0,-.2,.1,-.4,.2,-.6c.2,-.1,.4,-.2,.6,-.2c.2,0,.4,.1,.5,.2c.2,.2,.3,.4,.3,.6c0,.2,-.1,.4,-.3,.5c-.1,.2,-.3,.3,-.5,.3Zm.8,-6.8h-1.6c-.2,0,-.2,-.1,-.2,-.2c0,-.2,0,-.3,.2,-.3h1.6c.1,0,.2,.1,.2,.3c0,.1,-.1,.2,-.2,.2Z" class="g4"/>
<path d="M463.7,61.2c-.3,0,-.5,.1,-.6,.3c-.2,.1,-.3,.3,-.3,.6c0,.2,.1,.4,.3,.6c.1,.2,.3,.2,.6,.2c.2,0,.4,0,.6,-.2c.1,-.2,.2,-.4,.2,-.6c0,-.3,-.1,-.5,-.2,-.6c-.2,-.2,-.4,-.3,-.6,-.3Z" class="g4"/>
<path d="M463.7,59.4c-.4,0,-.7,.1,-1,.2c-.4,.1,-.6,.3,-.9,.6c-.2,.2,-.4,.5,-.5,.8c-.2,.3,-.2,.7,-.2,1c0,2.2,.8,5.4,2.2,7c.1,.1,.2,.1,.4,.1c.1,0,.2,0,.3,-.1c1.4,-1.6,2.3,-4.8,2.3,-7c0,-.3,-.1,-.7,-.2,-1c-.2,-.3,-.4,-.6,-.6,-.8c-.2,-.3,-.5,-.5,-.8,-.6c-.4,-.1,-.7,-.2,-1,-.2Zm0,4.1c-.4,0,-.7,-.2,-1,-.4c-.3,-.3,-.4,-.6,-.4,-1c0,-.4,.1,-.7,.4,-1c.3,-.3,.6,-.4,1,-.4c.3,0,.7,.1,.9,.4c.3,.3,.4,.6,.4,1c0,.4,-.1,.7,-.4,1c-.2,.2,-.6,.4,-.9,.4Z" class="g4"/>
<path d="M464,85.1l.8,-.7L462,83.7l.8,2.8l.6,-.8l1.4,1.3c.1,.1,.2,.1,.2,0l.3,-.3q.1,-.1,0,-.2L464,85.1Z" class="g4"/>
<path d="M467.8,81.3v-1c0,-.2,-.1,-.4,-.3,-.6c-.1,-.2,-.4,-.3,-.6,-.3h-6.6c-.2,0,-.5,.1,-.6,.3c-.2,.2,-.3,.4,-.3,.6v1c0,.2,.1,.3,.2,.3h7.9c.2,0,.3,-.1,.3,-.3Zm-5.5,-1h.5c.2,0,.3,0,.3,.2c0,.2,-.1,.3,-.3,.3h-.5c-.2,0,-.3,-.1,-.3,-.3c0,-.2,.1,-.2,.3,-.2Zm-1.6,0h.6c.1,0,.2,0,.2,.2c0,.2,-.1,.3,-.2,.3h-.6c-.1,0,-.2,-.1,-.2,-.3c0,-.2,.1,-.2,.2,-.2Z" class="g4"/>
<path d="M459.4,82.3v6c0,.2,.1,.4,.3,.6c.1,.2,.4,.3,.6,.3h6.6c.2,0,.5,-.1,.6,-.3c.2,-.2,.3,-.4,.3,-.6v-6c0,-.1,-.1,-.2,-.3,-.2h-7.9c-.1,0,-.2,.1,-.2,.2Zm6.3,4.8l-.3,.3c-.1,.1,-.3,.2,-.5,.2c-.2,0,-.3,-.1,-.5,-.2l-.9,-1l-.4,.5c-.1,.1,-.3,.2,-.4,.2c-.2,-.1,-.4,-.2,-.4,-.4l-.8,-3c-.1,-.2,-.1,-.3,.1,-.5c.1,-.1,.3,-.1,.4,-.1l3,.9c.2,0,.3,.1,.4,.3c0,.2,0,.4,-.2,.5l-.4,.4l.9,.9c.1,.1,.2,.3,.2,.5c0,.2,-.1,.3,-.2,.5Z" class="g4"/>
<path d="M467.4,99.8h-7.6c-.2,0,-.3,.1,-.4,.2c-.2,.2,-.2,.3,-.2,.5V108c0,.2,0,.4,.2,.5c.1,.1,.2,.2,.4,.2h7.6c.1,0,.3,-.1,.4,-.2c.1,-.1,.2,-.3,.2,-.5v-7.5c0,-.2,-.1,-.3,-.2,-.5c-.1,-.1,-.3,-.2,-.4,-.2Zm-5.6,7.6h-1.3v-4.2h1.3v4.2Zm-.7,-4.8c-.2,0,-.4,-.1,-.5,-.2c-.2,-.2,-.2,-.4,-.2,-.6c0,-.2,0,-.4,.2,-.5c.1,-.2,.3,-.2,.5,-.2c.2,0,.4,0,.6,.2c.1,.1,.2,.3,.2,.5c0,.2,-.1,.4,-.2,.6c-.2,.1,-.4,.2,-.6,.2Zm5.6,4.8h-1.3v-2.1c0,-.5,0,-1.1,-.7,-1.1c-.7,0,-.8,.5,-.8,1.1v2.1h-1.3v-4.2h1.3v.5c.3,-.4,.7,-.7,1.2,-.6c1.4,0,1.6,.8,1.6,2v2.3Z" class="g4"/>
<path d="M-.8,161.2H19V192H-.8V161.2Z" class="g5"/>
<path d="M-.8,205.3H19v30.8H-.8V205.3Z" class="g5"/>
<path d="M-.8,249.4H19v30.8H-.8V249.4Z" class="g5"/>
<path d="M-.8,325.9H19v30.8H-.8V325.9Z" class="g5"/>
<path d="M249.8,173.7v-9.1c0,-.4,.1,-.7,.2,-1c.2,-.3,.3,-.6,.6,-.8c.2,-.2,.5,-.4,.8,-.5c.3,-.2,.6,-.2,.9,-.2H291c.3,0,.7,0,1,.2c.3,.1,.5,.3,.8,.5c.2,.2,.4,.5,.5,.8c.1,.3,.2,.6,.2,1v9.1c0,.3,-.1,.7,-.2,1c-.1,.3,-.3,.5,-.5,.8c-.3,.2,-.5,.4,-.8,.5c-.3,.1,-.7,.2,-1,.2H252.3c-.3,0,-.6,-.1,-.9,-.2c-.3,-.1,-.6,-.3,-.8,-.5c-.3,-.3,-.4,-.5,-.6,-.8c-.1,-.3,-.2,-.7,-.2,-1Z" class="g6"/>
<path d="M297.7,173.7v-9.1c0,-.4,0,-.7,.2,-1c.1,-.3,.3,-.6,.5,-.8c.2,-.2,.5,-.4,.8,-.5c.3,-.2,.6,-.2,1,-.2h44.5c.3,0,.6,0,.9,.2c.3,.1,.6,.3,.8,.5c.3,.2,.4,.5,.6,.8c.1,.3,.2,.6,.2,1v9.1c0,.3,-.1,.7,-.2,1c-.2,.3,-.3,.5,-.6,.8c-.2,.2,-.5,.4,-.8,.5c-.3,.1,-.6,.2,-.9,.2H300.2c-.4,0,-.7,-.1,-1,-.2c-.3,-.1,-.6,-.3,-.8,-.5c-.2,-.3,-.4,-.5,-.5,-.8c-.2,-.3,-.2,-.7,-.2,-1Z" class="g6"/>
<path d="M351.3,173.7v-9.1c0,-.4,.1,-.7,.2,-1c.1,-.3,.3,-.6,.5,-.8c.3,-.2,.5,-.4,.9,-.5c.3,-.2,.6,-.2,.9,-.2h67c.3,0,.6,0,.9,.2c.3,.1,.6,.3,.8,.5c.3,.2,.4,.5,.6,.8c.1,.3,.2,.6,.2,1v9.1c0,.3,-.1,.7,-.2,1c-.2,.3,-.3,.5,-.6,.8c-.2,.2,-.5,.4,-.8,.5c-.3,.1,-.6,.2,-.9,.2h-67c-.3,0,-.6,-.1,-.9,-.2c-.4,-.1,-.6,-.3,-.9,-.5c-.2,-.3,-.4,-.5,-.5,-.8c-.1,-.3,-.2,-.7,-.2,-1Z" class="g6"/>
<path d="M249.8,192v-9.1c0,-.4,.1,-.7,.2,-1c.2,-.3,.3,-.6,.6,-.8c.2,-.2,.5,-.4,.8,-.5c.3,-.2,.6,-.2,.9,-.2h77.4c.3,0,.6,0,.9,.2c.3,.1,.6,.3,.8,.5c.3,.2,.5,.5,.6,.8c.1,.3,.2,.6,.2,1V192c0,.3,-.1,.7,-.2,1c-.1,.3,-.3,.5,-.6,.8c-.2,.2,-.5,.4,-.8,.5c-.3,.1,-.6,.2,-.9,.2H252.3c-.3,0,-.6,-.1,-.9,-.2c-.3,-.1,-.6,-.3,-.8,-.5c-.3,-.3,-.4,-.5,-.6,-.8c-.1,-.3,-.2,-.7,-.2,-1Z" class="g6"/>
<path d="M336.3,192v-9.1c0,-.4,.1,-.7,.2,-1c.2,-.3,.3,-.6,.6,-.8c.2,-.2,.5,-.4,.8,-.5c.3,-.2,.6,-.2,.9,-.2h80.3c.3,0,.6,0,1,.2c.3,.1,.5,.3,.8,.5c.2,.2,.4,.5,.5,.8c.1,.3,.2,.6,.2,1V192c0,.3,-.1,.7,-.2,1c-.1,.3,-.3,.5,-.5,.8c-.3,.2,-.5,.4,-.8,.5c-.4,.1,-.7,.2,-1,.2H338.8c-.3,0,-.6,-.1,-.9,-.2c-.3,-.1,-.6,-.3,-.8,-.5c-.3,-.3,-.4,-.5,-.6,-.8c-.1,-.3,-.2,-.7,-.2,-1Z" class="g6"/>
<path d="M249.8,210.3v-9.1c0,-.4,.1,-.7,.2,-1c.2,-.3,.3,-.6,.6,-.8c.2,-.2,.5,-.4,.8,-.5c.3,-.2,.6,-.2,.9,-.2H353.8c.3,0,.7,0,1,.2c.3,.1,.5,.3,.8,.5c.2,.2,.4,.5,.5,.8c.1,.3,.2,.6,.2,1v9.1c0,.3,-.1,.7,-.2,1c-.1,.3,-.3,.5,-.5,.8c-.3,.2,-.5,.4,-.8,.5c-.3,.1,-.7,.2,-1,.2H252.3c-.3,0,-.6,-.1,-.9,-.2c-.3,-.1,-.6,-.3,-.8,-.5c-.3,-.3,-.4,-.5,-.6,-.8c-.1,-.3,-.2,-.7,-.2,-1Z" class="g6"/>
<path d="M249.8,271.9v-9.2c0,-.3,.1,-.6,.2,-.9c.2,-.4,.3,-.6,.6,-.9c.2,-.2,.5,-.4,.8,-.5c.3,-.1,.6,-.2,.9,-.2H391.2c.4,0,.7,.1,1,.2c.3,.1,.6,.3,.8,.5c.2,.3,.4,.5,.5,.9c.2,.3,.2,.6,.2,.9v9.2c0,.3,0,.6,-.2,.9c-.1,.3,-.3,.6,-.5,.8c-.2,.3,-.5,.4,-.8,.6c-.3,.1,-.6,.2,-1,.2H252.3c-.3,0,-.6,-.1,-.9,-.2c-.3,-.2,-.6,-.3,-.8,-.6c-.3,-.2,-.4,-.5,-.6,-.8c-.1,-.3,-.2,-.6,-.2,-.9Z" class="g6"/>
<path d="M397.9,271.9v-9.2c0,-.3,0,-.6,.2,-.9c.1,-.4,.3,-.6,.5,-.9c.3,-.2,.5,-.4,.8,-.5c.3,-.1,.7,-.2,1,-.2h44.1c.3,0,.6,.1,.9,.2c.3,.1,.6,.3,.8,.5c.3,.3,.4,.5,.6,.9c.1,.3,.2,.6,.2,.9v9.2c0,.3,-.1,.6,-.2,.9c-.2,.3,-.3,.6,-.6,.8c-.2,.3,-.5,.4,-.8,.6c-.3,.1,-.6,.2,-.9,.2H400.4c-.3,0,-.7,-.1,-1,-.2c-.3,-.2,-.5,-.3,-.8,-.6c-.2,-.2,-.4,-.5,-.5,-.8c-.2,-.3,-.2,-.6,-.2,-.9Z" class="g6"/>
<path d="M249.8,290.2V281c0,-.3,.1,-.6,.2,-1c.2,-.3,.3,-.5,.6,-.8c.2,-.2,.5,-.4,.8,-.5c.3,-.1,.6,-.2,.9,-.2H338c.3,0,.7,.1,1,.2c.3,.1,.5,.3,.8,.5c.2,.3,.4,.5,.5,.8c.1,.4,.2,.7,.2,1v9.2c0,.3,-.1,.6,-.2,.9c-.1,.3,-.3,.6,-.5,.8c-.3,.3,-.5,.4,-.8,.6c-.3,.1,-.7,.1,-1,.1H252.3c-.3,0,-.6,0,-.9,-.1c-.3,-.2,-.6,-.3,-.8,-.6c-.3,-.2,-.4,-.5,-.6,-.8c-.1,-.3,-.2,-.6,-.2,-.9Z" class="g6"/>
<path d="M344.7,290.2V281c0,-.3,0,-.6,.1,-1c.2,-.3,.4,-.5,.6,-.8c.2,-.2,.5,-.4,.8,-.5c.3,-.1,.6,-.2,1,-.2h45.7c.3,0,.6,.1,1,.2c.3,.1,.5,.3,.8,.5c.2,.3,.4,.5,.5,.8c.1,.4,.2,.7,.2,1v9.2c0,.3,-.1,.6,-.2,.9c-.1,.3,-.3,.6,-.5,.8c-.3,.3,-.5,.4,-.8,.6c-.4,.1,-.7,.1,-1,.1H347.2c-.4,0,-.7,0,-1,-.1c-.3,-.2,-.6,-.3,-.8,-.6c-.2,-.2,-.4,-.5,-.6,-.8c-.1,-.3,-.1,-.6,-.1,-.9Z" class="g6"/>
<path d="M399.6,290.2V281c-.1,-.3,0,-.6,.1,-1c.2,-.3,.3,-.5,.6,-.8c.2,-.2,.5,-.4,.8,-.5c.3,-.1,.6,-.2,.9,-.2h38.3c.3,0,.7,.1,1,.2c.3,.1,.5,.3,.8,.5c.2,.3,.4,.5,.5,.8c.1,.4,.2,.7,.2,1v9.2c0,.3,-.1,.6,-.2,.9c-.1,.3,-.3,.6,-.5,.8c-.3,.3,-.5,.4,-.8,.6c-.3,.1,-.7,.1,-1,.1H402c-.3,0,-.6,0,-.9,-.1c-.3,-.2,-.6,-.3,-.8,-.6c-.3,-.2,-.4,-.5,-.6,-.8c-.1,-.3,-.2,-.6,-.1,-.9Z" class="g6"/>
<path d="M250.3,353.4V342.6c0,-.3,0,-.6,.1,-.8c.1,-.3,.3,-.5,.5,-.7c.2,-.2,.4,-.4,.6,-.5c.3,-.1,.6,-.1,.8,-.1H353c.2,0,.5,0,.8,.1c.2,.1,.4,.3,.6,.5c.2,.2,.4,.4,.5,.7c.1,.2,.2,.5,.2,.8v10.8c0,.2,-.1,.5,-.2,.8c-.1,.2,-.3,.4,-.5,.6c-.2,.2,-.4,.4,-.6,.5c-.3,.1,-.6,.1,-.8,.1H252.3c-.2,0,-.5,0,-.8,-.1c-.2,-.1,-.4,-.3,-.6,-.5c-.2,-.2,-.4,-.4,-.5,-.6c-.1,-.3,-.1,-.6,-.1,-.8Zm109.7,0V342.6c0,-.3,.1,-.6,.2,-.8c.1,-.3,.3,-.5,.5,-.7c.1,-.2,.4,-.4,.6,-.5c.3,-.1,.5,-.1,.8,-.1h31.6c.3,0,.6,0,.8,.1c.3,.1,.5,.3,.7,.5c.2,.2,.3,.4,.4,.7c.2,.2,.2,.5,.2,.8v10.8c0,.2,0,.5,-.2,.8c-.1,.2,-.2,.4,-.4,.6c-.2,.2,-.4,.4,-.7,.5c-.2,.1,-.5,.1,-.8,.1H362.1c-.3,0,-.5,0,-.8,-.1c-.2,-.1,-.5,-.3,-.6,-.5c-.2,-.2,-.4,-.4,-.5,-.6c-.1,-.3,-.2,-.6,-.2,-.8Zm40.8,0V342.6c0,-.3,.1,-.6,.2,-.8c.1,-.3,.2,-.5,.4,-.7c.2,-.2,.4,-.4,.7,-.5c.2,-.1,.5,-.1,.8,-.1h59.9c.2,0,.5,0,.8,.1c.2,.1,.4,.3,.6,.5c.2,.2,.4,.4,.5,.7c.1,.2,.1,.5,.1,.8v10.8c0,.2,0,.5,-.1,.8c-.1,.2,-.3,.4,-.5,.6c-.2,.2,-.4,.4,-.6,.5c-.3,.1,-.6,.1,-.8,.1H402.9c-.3,0,-.6,0,-.8,-.1c-.3,-.1,-.5,-.3,-.7,-.5c-.2,-.2,-.3,-.4,-.4,-.6c-.1,-.3,-.2,-.6,-.2,-.8ZM250.3,373.3V362.5c0,-.3,0,-.5,.1,-.8c.1,-.2,.3,-.5,.5,-.7c.2,-.2,.4,-.3,.6,-.4c.3,-.1,.6,-.2,.8,-.2h59.9c.3,0,.6,.1,.8,.2c.3,.1,.5,.2,.7,.4c.2,.2,.3,.5,.4,.7c.1,.3,.2,.5,.2,.8v10.8c0,.3,-.1,.6,-.2,.8c-.1,.3,-.2,.5,-.4,.7c-.2,.2,-.4,.3,-.7,.4c-.2,.2,-.5,.2,-.8,.2H252.3c-.2,0,-.5,0,-.8,-.2c-.2,-.1,-.4,-.2,-.6,-.4c-.2,-.2,-.4,-.4,-.5,-.7c-.1,-.2,-.1,-.5,-.1,-.8Zm0,125.6V488.1c0,-.3,0,-.5,.1,-.8c.1,-.2,.3,-.5,.5,-.7c.2,-.2,.4,-.3,.6,-.4c.3,-.1,.6,-.2,.8,-.2H403.7c.3,0,.5,.1,.8,.2c.3,.1,.5,.2,.7,.4c.2,.2,.3,.5,.4,.7c.1,.3,.2,.5,.2,.8v10.8c0,.3,-.1,.6,-.2,.8c-.1,.3,-.2,.5,-.4,.7c-.2,.2,-.4,.3,-.7,.4c-.3,.1,-.5,.2,-.8,.2H252.3c-.2,0,-.5,-.1,-.8,-.2c-.2,-.1,-.4,-.2,-.6,-.4c-.2,-.2,-.4,-.4,-.5,-.7c-.1,-.2,-.1,-.5,-.1,-.8Zm0,20V508.1c0,-.3,0,-.6,.1,-.8c.1,-.3,.3,-.5,.5,-.7c.2,-.2,.4,-.4,.6,-.5c.3,-.1,.6,-.1,.8,-.1H402.9c.3,0,.5,0,.8,.1c.2,.1,.5,.3,.6,.5c.2,.2,.4,.4,.5,.7c.1,.2,.2,.5,.2,.8v10.8c0,.3,-.1,.5,-.2,.8c-.1,.2,-.3,.5,-.5,.6c-.1,.2,-.4,.4,-.6,.5c-.3,.1,-.5,.2,-.8,.2H252.3c-.2,0,-.5,-.1,-.8,-.2c-.2,-.1,-.4,-.3,-.6,-.5c-.2,-.1,-.4,-.4,-.5,-.6c-.1,-.3,-.1,-.5,-.1,-.8Zm0,19.9V528c0,-.3,0,-.5,.1,-.8c.1,-.2,.3,-.5,.5,-.6c.2,-.2,.4,-.4,.6,-.5c.3,-.1,.6,-.2,.8,-.2H436.6c.2,0,.5,.1,.8,.2c.2,.1,.4,.3,.6,.5c.2,.1,.4,.4,.5,.6c.1,.3,.1,.5,.1,.8v10.8c0,.3,0,.6,-.1,.8c-.1,.3,-.3,.5,-.5,.7c-.2,.2,-.4,.4,-.6,.5c-.3,.1,-.6,.1,-.8,.1H252.3c-.2,0,-.5,0,-.8,-.1c-.2,-.1,-.4,-.3,-.6,-.5c-.2,-.2,-.4,-.4,-.5,-.7c-.1,-.2,-.1,-.5,-.1,-.8Zm0,20V548c0,-.3,0,-.6,.1,-.8c.1,-.3,.3,-.5,.5,-.7c.2,-.2,.4,-.3,.6,-.4c.3,-.1,.6,-.2,.8,-.2H395.4c.3,0,.5,.1,.8,.2c.2,.1,.5,.2,.7,.4c.2,.2,.3,.4,.4,.7c.1,.2,.2,.5,.2,.8v10.8c0,.3,-.1,.5,-.2,.8c-.1,.2,-.2,.5,-.4,.7c-.2,.2,-.5,.3,-.7,.4c-.3,.1,-.5,.2,-.8,.2H252.3c-.2,0,-.5,-.1,-.8,-.2c-.2,-.1,-.4,-.2,-.6,-.4c-.2,-.2,-.4,-.5,-.5,-.7c-.1,-.3,-.1,-.5,-.1,-.8Z" class="g7"/>
<path d="M283.1,58.5c0,1.3,-.1,2.5,-.2,3.8c-.1,1.2,-.3,2.5,-.5,3.7c-.3,1.2,-.6,2.4,-.9,3.6c-.4,1.2,-.8,2.4,-1.3,3.6c-.5,1.1,-1,2.2,-1.6,3.4c-.6,1.1,-1.2,2.1,-1.9,3.2c-.7,1,-1.5,2,-2.3,3c-.8,1,-1.6,1.9,-2.5,2.8c-.9,.9,-1.8,1.7,-2.8,2.5c-.9,.8,-2,1.5,-3,2.2c-1,.7,-2.1,1.4,-3.2,2c-1.1,.6,-2.3,1.1,-3.4,1.6c-1.2,.4,-2.3,.9,-3.5,1.2c-1.2,.4,-2.5,.7,-3.7,.9c-1.2,.3,-2.5,.5,-3.7,.6c-1.2,.1,-2.5,.2,-3.7,.2c-1.3,0,-2.6,-.1,-3.8,-.2c-1.2,-.1,-2.5,-.3,-3.7,-.6c-1.2,-.2,-2.5,-.5,-3.7,-.9c-1.2,-.3,-2.3,-.8,-3.5,-1.2c-1.1,-.5,-2.3,-1,-3.4,-1.6c-1.1,-.6,-2.2,-1.3,-3.2,-2c-1,-.7,-2.1,-1.4,-3,-2.2c-1,-.8,-1.9,-1.6,-2.8,-2.5c-.9,-.9,-1.7,-1.8,-2.5,-2.8c-.8,-1,-1.6,-2,-2.3,-3c-.7,-1.1,-1.3,-2.1,-1.9,-3.2c-.6,-1.2,-1.1,-2.3,-1.6,-3.4c-.5,-1.2,-.9,-2.4,-1.3,-3.6c-.3,-1.2,-.6,-2.4,-.9,-3.6c-.2,-1.2,-.4,-2.5,-.5,-3.7c-.1,-1.3,-.2,-2.5,-.2,-3.8c0,-1.2,.1,-2.5,.2,-3.7c.1,-1.3,.3,-2.5,.5,-3.7c.3,-1.3,.6,-2.5,.9,-3.7c.4,-1.2,.8,-2.4,1.3,-3.5c.5,-1.2,1,-2.3,1.6,-3.4c.6,-1.1,1.2,-2.2,1.9,-3.2c.7,-1.1,1.5,-2.1,2.3,-3.1c.8,-.9,1.6,-1.8,2.5,-2.7c.9,-.9,1.8,-1.8,2.8,-2.6c.9,-.8,2,-1.5,3,-2.2c1,-.7,2.1,-1.3,3.2,-1.9c1.1,-.6,2.3,-1.1,3.4,-1.6c1.2,-.5,2.3,-.9,3.5,-1.3c1.2,-.4,2.5,-.7,3.7,-.9c1.2,-.2,2.5,-.4,3.7,-.6c1.2,-.1,2.5,-.1,3.8,-.1c1.2,0,2.5,0,3.7,.1c1.2,.2,2.5,.4,3.7,.6c1.2,.2,2.5,.5,3.7,.9c1.2,.4,2.3,.8,3.5,1.3c1.1,.5,2.3,1,3.4,1.6c1.1,.6,2.2,1.2,3.2,1.9c1,.7,2.1,1.4,3,2.2c1,.8,1.9,1.7,2.8,2.6c.9,.9,1.7,1.8,2.5,2.7c.8,1,1.6,2,2.3,3.1c.7,1,1.3,2.1,1.9,3.2c.6,1.1,1.1,2.2,1.6,3.4c.5,1.1,.9,2.3,1.3,3.5c.3,1.2,.6,2.4,.9,3.7c.2,1.2,.4,2.4,.5,3.7c.1,1.2,.2,2.5,.2,3.7Z" class="g5"/>
<path d="M283.1,58.5c0,1.3,-.1,2.5,-.2,3.8c-.1,1.2,-.3,2.5,-.5,3.7c-.3,1.2,-.6,2.4,-.9,3.6c-.4,1.2,-.8,2.4,-1.3,3.6c-.5,1.1,-1,2.2,-1.6,3.4c-.6,1.1,-1.2,2.1,-1.9,3.2c-.7,1,-1.5,2,-2.3,3c-.8,1,-1.6,1.9,-2.5,2.8c-.9,.9,-1.8,1.7,-2.8,2.5c-.9,.8,-2,1.5,-3,2.2c-1,.7,-2.1,1.4,-3.2,2c-1.1,.6,-2.3,1.1,-3.4,1.6c-1.2,.4,-2.3,.9,-3.5,1.2c-1.2,.4,-2.5,.7,-3.7,.9c-1.2,.3,-2.5,.5,-3.7,.6c-1.2,.1,-2.5,.2,-3.7,.2c-1.3,0,-2.6,-.1,-3.8,-.2c-1.2,-.1,-2.5,-.3,-3.7,-.6c-1.2,-.2,-2.5,-.5,-3.7,-.9c-1.2,-.3,-2.3,-.8,-3.5,-1.2c-1.1,-.5,-2.3,-1,-3.4,-1.6c-1.1,-.6,-2.2,-1.3,-3.2,-2c-1,-.7,-2.1,-1.4,-3,-2.2c-1,-.8,-1.9,-1.6,-2.8,-2.5c-.9,-.9,-1.7,-1.8,-2.5,-2.8c-.8,-1,-1.6,-2,-2.3,-3c-.7,-1.1,-1.3,-2.1,-1.9,-3.2c-.6,-1.2,-1.1,-2.3,-1.6,-3.4c-.5,-1.2,-.9,-2.4,-1.3,-3.6c-.3,-1.2,-.6,-2.4,-.9,-3.6c-.2,-1.2,-.4,-2.5,-.5,-3.7c-.1,-1.3,-.2,-2.5,-.2,-3.8c0,-1.2,.1,-2.5,.2,-3.7c.1,-1.3,.3,-2.5,.5,-3.7c.3,-1.3,.6,-2.5,.9,-3.7c.4,-1.2,.8,-2.4,1.3,-3.5c.5,-1.2,1,-2.3,1.6,-3.4c.6,-1.1,1.2,-2.2,1.9,-3.2c.7,-1.1,1.5,-2.1,2.3,-3.1c.8,-.9,1.6,-1.8,2.5,-2.7c.9,-.9,1.8,-1.8,2.8,-2.6c.9,-.8,2,-1.5,3,-2.2c1,-.7,2.1,-1.3,3.2,-1.9c1.1,-.6,2.3,-1.1,3.4,-1.6c1.2,-.5,2.3,-.9,3.5,-1.3c1.2,-.4,2.5,-.7,3.7,-.9c1.2,-.2,2.5,-.4,3.7,-.6c1.2,-.1,2.5,-.1,3.8,-.1c1.2,0,2.5,0,3.7,.1c1.2,.2,2.5,.4,3.7,.6c1.2,.2,2.5,.5,3.7,.9c1.2,.4,2.3,.8,3.5,1.3c1.1,.5,2.3,1,3.4,1.6c1.1,.6,2.2,1.2,3.2,1.9c1,.7,2.1,1.4,3,2.2c1,.8,1.9,1.7,2.8,2.6c.9,.9,1.7,1.8,2.5,2.7c.8,1,1.6,2,2.3,3.1c.7,1,1.3,2.1,1.9,3.2c.6,1.1,1.1,2.2,1.6,3.4c.5,1.1,.9,2.3,1.3,3.5c.3,1.2,.6,2.4,.9,3.7c.2,1.2,.4,2.4,.5,3.7c.1,1.2,.2,2.5,.2,3.7Z" class="g8"/>
<image clip-path="url(#c2)" preserveAspectRatio="none" x="208" y="22" width="79" height="79" xlink:href="img/1.png"/>
<path d="M115.9,436.2h-.3v1.2c0,.2,0,.3,-.2,.4c-.1,.1,-.2,.2,-.3,.2h-3c-.1,0,-.3,-.1,-.4,-.2c-.1,-.1,-.1,-.3,-.1,-.4v-2.9c0,-.2,0,-.3,.1,-.4c.1,-.1,.3,-.2,.4,-.2h2.5c0,0,.1,0,.1,0c0,0,0,-.1,0,-.1v-.2q0,-.1,0,-.1c0,0,-.1,0,-.1,0h-2.5c-.2,0,-.5,.1,-.7,.3c-.2,.2,-.3,.4,-.3,.7v2.9c0,.3,.1,.5,.3,.7c.2,.2,.5,.3,.7,.3h3c.2,0,.5,-.1,.7,-.3c.2,-.2,.3,-.4,.3,-.7v-1.1q0,-.1,-.1,-.1h-.1Z" class="g5"/>
<path d="M117.3,433.1c0,-.1,-.1,-.1,-.1,-.1h-1.8q-.1,0,-.2,.1c0,0,-.1,.1,-.1,.1c0,.1,.1,.2,.1,.2l.6,.6l-2.2,2.3q-.1,0,-.1,.1l.1,.1l.4,.4q.1,0,.1,0l2.3,-2.3l.6,.6c.1,0,.1,.1,.2,.1c0,0,.1,-.1,.1,-.1c.1,0,.1,-.1,.1,-.2v-1.8c0,0,0,-.1,-.1,-.1Z" class="g5"/>
<path d="M90.6,453.6h-.2q-.1,0,-.1,.1c0,0,-.1,0,-.1,0v1.2c0,.1,0,.3,-.1,.4c-.1,.1,-.3,.1,-.4,.1H86.8c-.2,0,-.3,0,-.4,-.1c-.2,-.2,-.2,-.3,-.2,-.4v-3c0,-.1,.1,-.3,.2,-.4c.1,-.1,.2,-.1,.4,-.1h2.4q.1,0,.1,0c0,-.1,.1,-.1,.1,-.1V451c0,0,-.1,0,-.1,0q0,-.1,-.1,-.1H86.8c-.3,0,-.5,.1,-.7,.3c-.3,.2,-.3,.5,-.3,.7v3c0,.2,.1,.5,.3,.7c.2,.2,.4,.3,.7,.3h2.9c.3,0,.5,-.1,.7,-.3c.2,-.2,.3,-.5,.3,-.7v-1.3q-.1,0,-.1,0Z" class="g5"/>
<path d="M92,450.5q-.1,0,-.2,0H90c0,0,-.1,0,-.1,0c-.1,.1,-.1,.2,-.1,.2q0,.1,.1,.2l.6,.6l-2.3,2.3v.1l.4,.4q0,.1,.1,.1l.1,-.1L91,452.1l.7,.6c0,0,.1,0,.1,0q.1,0,.2,0c0,-.1,.1,-.1,.1,-.2v-1.8q-.1,-.1,-.1,-.2Z" class="g5"/>
<path d="M106.4,471.1h-.2q-.1,0,-.1,0c0,0,-.1,.1,-.1,.1v1.1c0,.2,0,.3,-.1,.4c-.1,.1,-.3,.2,-.4,.2h-2.9c-.2,0,-.3,-.1,-.4,-.2c-.1,-.1,-.2,-.2,-.2,-.4v-2.9c0,-.2,.1,-.3,.2,-.4c.1,-.1,.2,-.2,.4,-.2H105q.1,0,.1,0c0,0,.1,0,.1,-.1v-.2c0,0,-.1,0,-.1,-.1h-2.5c-.3,0,-.5,.1,-.7,.3c-.3,.2,-.3,.4,-.3,.7v2.9c0,.3,.1,.5,.3,.7c.2,.2,.4,.3,.7,.3h2.9c.3,0,.5,-.1,.7,-.3c.2,-.2,.3,-.4,.3,-.7v-1.1c0,0,0,-.1,0,-.1q-.1,0,-.1,0Z" class="g5"/>
<path d="M107.8,468c-.1,0,-.1,-.1,-.2,-.1h-1.8c0,0,-.1,.1,-.1,.1q-.1,.1,-.1,.2c0,0,0,.1,.1,.1l.6,.6l-2.3,2.3q0,.1,0,.1q0,.1,0,.1l.4,.4h.2l2.3,-2.3l.6,.6c0,.1,.1,.1,.1,.1q.1,0,.2,-.1c0,0,.1,-.1,.1,-.1v-1.8q-.1,-.1,-.1,-.2Z" class="g5"/>
</g>
</svg>